<svg xmlns="http://www.w3.org/2000/svg" viewBox="0 0 960 600" role="img" aria-label="Панель цветов и инструментов">
  <rect width="960" height="600" fill="#fbfff8"/>
  <rect x="64" y="64" width="832" height="472" fill="#ffffff" stroke="#050505" stroke-width="6"/>
  <rect x="96" y="96" width="768" height="96" fill="#1fb95f" opacity=".72" stroke="#050505" stroke-width="5"/>
  <text x="120" y="134" font-family="Arial, sans-serif" font-size="26" font-weight="800" fill="#050505">Выбор цвета</text>
  <g transform="translate(120 216)">
    <rect x="0" y="0" width="76" height="76" rx="10" fill="#ff4f4f" stroke="#050505" stroke-width="5"/>
    <rect x="94" y="0" width="76" height="76" rx="10" fill="#111111" stroke="#050505" stroke-width="5"/>
    <rect x="188" y="0" width="76" height="76" rx="10" fill="#1fb95f" stroke="#050505" stroke-width="5"/>
    <rect x="282" y="0" width="76" height="76" rx="10" fill="#335cff" stroke="#050505" stroke-width="5"/>
    <rect x="376" y="0" width="76" height="76" rx="10" fill="#800080" stroke="#050505" stroke-width="5"/>
    <rect x="470" y="0" width="76" height="76" rx="10" fill="#ffdf3d" stroke="#050505" stroke-width="5"/>
    <rect x="564" y="0" width="76" height="76" rx="10" fill="#a52a2a" stroke="#050505" stroke-width="5"/>
    <rect x="658" y="0" width="76" height="76" rx="10" fill="#ffc0cb" stroke="#050505" stroke-width="5"/>
  </g>
  <text x="120" y="356" font-family="Arial, sans-serif" font-size="26" font-weight="800" fill="#050505">Инструменты</text>
  <g transform="translate(120 382)">
    <rect x="0" y="0" width="170" height="72" rx="10" fill="#ffffff" stroke="#050505" stroke-width="5"/>
    <rect x="198" y="0" width="150" height="72" rx="10" fill="#ffffff" stroke="#050505" stroke-width="5"/>
    <rect x="376" y="0" width="190" height="72" rx="10" fill="#ffffff" stroke="#050505" stroke-width="5"/>
    <text x="34" y="46" font-family="Arial, sans-serif" font-size="26" font-weight="800" fill="#050505">Fill All</text>
    <text x="236" y="46" font-family="Arial, sans-serif" font-size="26" font-weight="800" fill="#050505">Clear</text>
    <text x="416" y="46" font-family="Arial, sans-serif" font-size="26" font-weight="800" fill="#050505">Save</text>
  </g>
  <path d="M742 398l45 45 76-96" fill="none" stroke="#1fb95f" stroke-width="14" stroke-linecap="round" stroke-linejoin="round"/>
  <text x="96" y="514" font-family="Arial, sans-serif" font-size="24" font-weight="700" fill="#050505">Цвета и кнопки помогают рисовать быстрее</text>
</svg>
